<svg xmlns="http://www.w3.org/2000/svg" width="32" height="32" viewBox="0 0 64 64"><path fill="#4a160c" d="M15.451 5.453v7.898l-1.592 1.578h11.139V3.875l-1.591 1.578z"/><path fill="#4a160c" d="M42.946 14.929c-.022-.121-.053-.24-.066-.361a4.17 4.17 0 0 1-3.617-1.218a4.2 4.2 0 0 1-.931-4.383a4 4 0 0 1-.604-.108a4.2 4.2 0 0 1-1.59-.782a4.1 4.1 0 0 1-1.224-1.563a4.2 4.2 0 0 1-.306-1.123l-.063.062h-7.957v7.897l-1.591 1.579zm-27.495 1.58v7.896l-1.592 1.58h11.139V14.929l-1.591 1.58zm11.138 0v7.896l-1.591 1.58h11.14V14.929l-1.592 1.58z"/><path fill="#4a160c" d="M49.906 32.019a6 6 0 0 0-.771-.471V18.22h-1.859a4.1 4.1 0 0 1-1.592-.211a4.16 4.16 0 0 1-2.052-1.5h-5.904v7.896l-1.59 1.58h11.138l-1.592 1.579h-7.956v3.023q-.787.081-1.59.183v-4.785l-1.592 1.579h-7.957v4.922q-.805.18-1.591.365v-6.866l-1.591 1.579h-7.956v7.826c-.598.177-1.134.338-1.592.479V3.875h20.674V2H12v60h37.134V43.289c1.976-4.571 4.906-8.213.772-11.27m-1.475 8.109c-1.448 2.984-3.346 6.895-2.411 11.457c-5.341-.162-7.493-3.03-10.199-6.635c-2.662-3.545-5.813-7.742-12.553-9.62c5.999-1.501 13.392-2.997 19.024-2.997c3.881 0 5.653.709 6.456 1.303c1.893 1.399 1.63 2.479-.317 6.492M13.859 60.125V36.508c.334.018.647.048.968.075c1.927.264 6.377 1.084 10.024 3.316c1.749 1.229 3.125 2.691 4.316 4.24a31 31 0 0 0 1.779 2.503c3.374 5.063 6.03 10.116 14.469 10.116c-.748-.912-1.238-2.075-1.548-3.379c.806.137 1.677.213 2.636.213c.249 0 .511-.011.771-.021v6.554z"/></svg>